<svg xmlns="http://www.w3.org/2000/svg" width="225" height="225" viewBox="0 0 225.00000000000003 225"><defs><clipPath id="a"><path d="M0 25h200v200H0z"/></clipPath></defs><path fill="none" stroke="#000" d="M18.182 225V25M0 198.913h200" stroke-width="2" opacity=".1"/><path fill="none" stroke="#000" d="M7.05 193.313c-.35 2.1-4.2 5.25-5.25 5.6 1.05.35 4.9 3.5 5.25 5.6" stroke-width="2" stroke-linejoin="round" stroke-linecap="round"/><path fill="none" stroke="#000" d="M18.182 198.913H1.05" stroke-width="2"/><path fill="none" stroke="#000" d="M194.45 204.513c.35-2.1 4.2-5.25 5.25-5.6-1.05-.35-4.9-3.5-5.25-5.6" stroke-width="2" stroke-linejoin="round" stroke-linecap="round"/><path fill="none" stroke="#000" d="M18.182 198.913H198.95" stroke-width="2"/><path fill="none" stroke="#000" d="M13.332 218.7c2.1.35 5.25 4.2 5.6 5.25.35-1.05 3.5-4.9 5.6-5.25" stroke-width="2" stroke-linejoin="round" stroke-linecap="round"/><path fill="none" stroke="#000" d="M18.182 198.913v25.037" stroke-width="2"/><path fill="none" stroke="#000" d="M24.532 31.3c-2.1-.35-5.25-4.2-5.6-5.25-.35 1.05-3.5 4.9-5.6 5.25" stroke-width="2" stroke-linejoin="round" stroke-linecap="round"/><path fill="none" stroke="#000" d="M18.182 198.913V26.05" stroke-width="2"/><path fill="#9d38bd" stroke="#9d38bd" d="M18.182 198.913v-17.391h36.363v17.391z" stroke-width="2" clip-path="url(#a)" opacity=".3"/><path fill="none" stroke="#9d38bd" d="M18.182 198.913v-17.391h36.363v17.391z" clip-path="url(#a)"/><path fill="#9d38bd" stroke="#9d38bd" d="M54.545 198.913v-24.348H90.91v24.348z" stroke-width="2" clip-path="url(#a)" opacity=".3"/><path fill="none" stroke="#9d38bd" d="M54.545 198.913v-24.348H90.91v24.348z" clip-path="url(#a)"/><path fill="#9d38bd" stroke="#9d38bd" d="M90.91 198.913v-45.217h36.363v45.217z" stroke-width="2" clip-path="url(#a)" opacity=".3"/><path fill="none" stroke="#9d38bd" d="M90.91 198.913v-45.217h36.363v45.217z" clip-path="url(#a)"/><path fill="#9d38bd" stroke="#9d38bd" d="M127.273 198.913v-80h36.363v80z" stroke-width="2" clip-path="url(#a)" opacity=".3"/><path fill="none" stroke="#9d38bd" d="M127.273 198.913v-80h36.363v80z" clip-path="url(#a)"/><path fill="none" stroke="#11accd" d="M0 179.783l.5.094.5.092.5.089.5.086.5.084.5.081.5.079.5.076.5.073.5.071.5.068.5.065.5.063.5.06.5.057.5.055.5.053.5.049.5.047.5.045.5.041.5.039.5.037.5.034.5.031.5.028.5.026.5.024.5.02.5.018.5.016.5.013.5.01.5.007.5.005.5.003.5-.001.5-.003.5-.005.5-.009.5-.011.5-.013.5-.016.5-.019.5-.021.5-.024.5-.027.5-.029.5-.032.5-.035.5-.037.5-.04.5-.042.5-.045.5-.048.5-.05.5-.053.5-.056.5-.058.5-.061.5-.064.5-.066.5-.068.5-.072.5-.074.5-.076.5-.08.5-.082.5-.084.5-.087.5-.09.5-.093.5-.095.5-.097.5-.101.5-.103.5-.105.5-.108.5-.111.5-.114.5-.116.5-.118.5-.122.5-.124.5-.126.5-.13.5-.132.5-.134.5-.137.5-.14.5-.142.5-.145.5-.148.5-.15.5-.153.5-.156.5-.158.5-.161.5-.163.5-.166.5-.169.5-.171.5-.174.5-.177.5-.179.5-.182.5-.185.5-.187.5-.189.5-.193.5-.195.5-.197.5-.201.5-.203.5-.205.5-.208.5-.211.5-.214.5-.216.5-.218.5-.222.5-.224.5-.226.5-.229.5-.232.5-.235.5-.237.5-.239.5-.243.5-.245.5-.247.5-.251.5-.253.5-.255.5-.258.5-.261.5-.263.5-.266.5-.269.5-.271.5-.274.5-.277.5-.279.5-.282.5-.284.5-.287.5-.29.5-.292.5-.295.5-.298.5-.3.5-.303.5-.306.5-.308.5-.31.5-.314.5-.316.5-.318.5-.322.5-.324.5-.326.5-.329.5-.332.5-.335.5-.337.5-.339.5-.343.5-.345.5-.347.5-.35.5-.353.5-.356.5-.358.5-.36.5-.364.5-.366.5-.368.5-.372.5-.374.5-.376.5-.379.5-.382.5-.384.5-.387.5-.39.5-.392.5-.395.5-.398.5-.4.5-.403.5-.405.5-.408.5-.411.5-.413.5-.416.5-.419.5-.421.5-.424.5-.427.5-.429.5-.431.5-.435.5-.437.5-.439.5-.443.5-.445.5-.447.5-.45.5-.453.5-.456.5-.458.5-.46.5-.464.5-.466.5-.468.5-.471.5-.474.5-.477.5-.479.5-.481.5-.485.5-.487.5-.489.5-.493.5-.495.5-.497.5-.5.5-.503.5-.505.5-.508.5-.511.5-.513.5-.516.5-.519.5-.521.5-.524.5-.526.5-.529.5-.532.5-.534.5-.537.5-.54.5-.542.5-.545.5-.548.5-.55.5-.552.5-.556.5-.558.5-.56.5-.564.5-.566.5-.568.5-.571.5-.574.5-.577.5-.579.5-.581.5-.585.5-.587.5-.589.5-.592.5-.595.5-.598.5-.6.5-.602.5-.606.5-.608.5-.61.5-.614.5-.616.5-.618.5-.621.5-.624.5-.626.5-.629.5-.632.5-.634.5-.637.5-.64.5-.642.5-.645.5-.647.5-.65.5-.653.5-.655.5-.658.5-.661.5-.663.5-.666.5-.669.5-.67.5-.674.5-.677.5-.679.5-.681.5-.685.5-.687.5-.69.5-.691.5-.695.5-.698.5-.7.5-.702.5-.706.5-.708.5-.71.5-.713.5-.716.5-.719.5-.72.5-.724.5-.727.5-.729.5-.731.5-.735.5-.737.5-.739.5-.742.5-.745.5-.747.5-.75.5-.753.5-.755.5-.758.5-.76.5-.764.5-.766.5-.768.5-.771.5-.774.5-.776.5-.78.5-.781.5-.784.5-.787.5-.79.5-.792.5-.794.5-.798.5-.8.5-.802.5-.806.5-.808.5-.81.5-.813.5-.816.5-.819.5-.82.5-.824.5-.827.5-.828.5-.832.5-.834.5-.837.5-.84.5-.842.5-.844.5-.848.5-.85.5-.852.5-.856.5-.858.5-.86.5-.863.5-.866.5-.868.5-.871.5-.874.5-.876.5-.88.5-.88.5-.885.5-.887.5-.89.5-.891.5-.895.5-.897.5-.9.5-.903.5-.905.5-.908.5-.91.5-.914.5-.915.5-.919.5-.92.5-.924.5-.927.5-.929.5-.931.5-.934.5-.937.5-.94.5-.942.5-.944.5-.948.5-.95.5-.952.5-.955" stroke-width="3" clip-path="url(#a)"/><path fill="#6495ed" d="M18.182 181.522l.5-.002.5-.004.5-.006.5-.009.5-.012.5-.015.5-.017.5-.019.5-.023.5-.025.5-.027.5-.031.5-.033.5-.035.5-.038.5-.041.5-.043.5-.046.5-.049.5-.051.5-.054.5-.057.5-.059.5-.062.5-.064.5-.067.5-.07.5-.072.5-.075.5-.078.5-.08.5-.083.5-.086.5-.088.5-.09.5-.094.5-.096.5-.098.5-.102.5-.104.5-.106.5-.109.5-.112.5-.115.5-.117.5-.119.5-.123.5-.125.5-.127.5-.13.5-.133.5-.136.5-.138.5-.14.5-.144.5-.146.5-.148.5-.152.5-.154.5-.156.5-.159.5-.162.5-.164.5-.167.5-.17.5-.172.5-.175.5-.178.5-.18.5-.183.5-.185.5-.188.5-.191.5-.193.5-.196.5-.199.5-.201.5-.204.5-.207.5-.209.5-.211.5-.215.5-.217.5-.219.5-.223.5-.225.5-.227.5-.23.5-.233.5-.236.5-.238.5-.24.5-.244.5-.246.5-.248.5-.251.5-.254.5-.257.5-.259.5-.261.5-.265.5-.267.5-.269.5-.273.5-.275.5-.277.5-.28.5-.283.5-.285.5-.288.5-.291.5-.293.5-.296.5-.299.5-.301.5-.304.5-.306.5-.309.5-.312.5-.314.5-.317.5-.32.5-.322.5-.325.5-.328.5-.33.5-.332.5-.336.5-.338.5-.34.5-.344.5-.346.5-.348.5-.351.5-.354.5-.357.5-.359.5-.361.5-.365.5-.367.5-.369.5-.372.5-.375.5-.378.5-.38.5-.382.5-.386.5-.388.5-.39.5-.394.5-.396.5-.398.5-.401.5-.404.5-.406.5-.409.5-.412.5-.414.5-.417.5-.42.5-.422.5-.425.5-.427.5-.43.5-.433.5-.435.5-.438.5-.441.5-.443.5-.446.5-.449.5-.451.5-.453.5-.457.5-.459.5-.461.5-.465.5-.467.5-.469.5-.472.5-.475.5-.478.5-.48.5-.482.5-.486.5-.488.5-.49.5-.493.5-.496.5-.499.5-.501.5-.503.5-.507.5-.509.5-.511.5-.515.5-.517.5-.519.5-.522.5-.525.5-.527.5-.53.5-.533.5-.535.5-.538.5-.541.5-.543.5-.546.5-.548.5-.551.5-.554.5-.556.5-.559.5-.562.5-.564.5-.567.5-.57.5-.572.5-.574.5-.578.5-.58.5-.582.5-.586.5-.588.5-.59.5-.593.5-.596.5-.599.5-.601.5-.603.5-.607.5-.609.5-.611.5-.614.5-.617.5-.62.5-.622.5-.624.5-.628.5-.63.5-.632.5-.636.5-.638.5-.64.5-.643.5-.646.5-.648.5-.651.5-.654.5-.656.5-.66.5-.66.5-.665.5-.667.5-.67.5-.671.5-.675.5-.677.5-.68.5-.683.5-.685.5-.688.5-.69.5-.694.5-.695.5-.699.5-.7.5-.704.5-.707.5-.709.5-.711.5-.714.5-.717.5-.72.5-.722.5-.724.5-.728.5-.73.5-.732.5-.735.5-.738.5-.74.5-.744.5-.745.5-.749.5-.75.5-.754.5-.757.5-.758.5-.762-.046 128.001h-144.5" clip-path="url(#a)" fill-opacity=".3"/></svg>
